# Blender 4.3.2
# www.blender.org
o Sphere
v 0.037653 0.691368 0.111033
v -0.069209 0.809037 -0.003701
v -0.161567 0.881087 -0.157266
v 0.200169 0.724477 0.025528
v 0.105342 0.835901 -0.103989
v 0.022432 0.893359 -0.256712
v 0.376464 0.688439 -0.022317
v 0.308853 0.778483 -0.178524
v 0.244207 0.814538 -0.339856
v 0.553927 0.583441 0.002991
v 0.520707 0.641447 -0.172799
v 0.476843 0.654801 -0.345012
v 0.704021 0.439383 0.093659
v 0.700700 0.466554 -0.089725
v 0.674771 0.461333 -0.272254
v 0.817352 0.280265 0.183488
v 0.831481 0.289143 -0.006255
v 0.814816 0.276008 -0.198466
v 0.906127 0.109756 0.198986
v 0.923879 0.114502 0.003815
v 0.906127 0.104542 -0.191160
v 0.961940 -0.074216 0.201445
v 0.980785 -0.073075 0.006322
v 0.961940 -0.079430 -0.188701
v -1.427379 -0.129445 -0.045071
v -1.498067 -0.134455 -0.267652
v -1.479222 -0.140810 -0.462675
v -1.368932 0.051683 -0.046127
v -1.440892 0.052622 -0.269296
v -1.423928 0.043637 -0.464673
v -1.212207 0.203548 -0.004853
v -1.297339 0.225607 -0.225304
v -1.293452 0.229137 -0.422967
v -0.948501 0.327926 0.085857
v -1.054356 0.381428 -0.119060
v -1.073335 0.411848 -0.314051
v -0.637142 0.430655 0.174479
v -0.760575 0.514892 0.000505
v -0.813990 0.574596 -0.185020
v -0.344868 0.525773 0.214500
v -0.472088 0.631545 0.076896
v -0.559599 0.710202 -0.095607
v -0.124271 0.619340 0.188679
v -0.239192 0.735017 0.072877
v -0.335580 0.815453 -0.088244
vn 0.1836 0.7881 0.5875
vn 0.0896 0.9347 0.3440
vn 0.3395 0.8487 0.4055
vn 0.3420 0.9324 0.1169
vn 0.5023 0.8362 0.2203
vn 0.5544 0.8303 -0.0574
vn 0.6605 0.7429 0.1090
vn 0.7185 0.6840 -0.1257
vn 0.7862 0.6125 0.0819
vn 0.8198 0.5598 -0.1206
vn 0.8791 0.4681 0.0894
vn 0.8805 0.4621 -0.1058
vn 0.9524 0.2876 -0.1014
vn 0.9524 0.2902 0.0937
vn -0.9126 0.2887 0.2894
vn -0.9527 0.2874 -0.0987
vn -0.7392 0.6063 0.2932
vn -0.7876 0.6141 -0.0503
vn -0.5564 0.7384 0.3810
vn -0.6150 0.7832 0.0914
vn -0.4606 0.7076 0.5359
vn -0.5498 0.7833 0.2901
vn -0.3674 0.6329 0.6815
vn -0.4860 0.7337 0.4748
vn -0.3495 0.7562 0.5532
vn -0.2201 0.6206 0.7526
vn 0.0149 0.7098 0.7042
vn -0.1372 0.8566 0.4974
vt 0.500000 0.517895
vt 0.500000 0.988644
vt 0.428579 0.988644
vt 0.428579 0.517895
vt 0.500000 0.047147
vt 0.428579 0.047147
vt 0.357158 0.988644
vt 0.357158 0.517895
vt 0.357158 0.047147
vt 0.285737 0.988644
vt 0.285737 0.517895
vt 0.285737 0.047147
vt 0.214316 0.988644
vt 0.214316 0.517895
vt 0.214316 0.047147
vt 0.142895 0.988644
vt 0.142895 0.517895
vt 0.142895 0.047147
vt 0.071474 0.988644
vt 0.071474 0.517895
vt 0.071474 0.047147
vt 0.000053 0.517895
vt 0.000053 0.047147
vt 0.000053 0.988644
vt 0.999946 0.517895
vt 0.999946 0.988644
vt 0.928526 0.988644
vt 0.928525 0.517895
vt 0.999946 0.047147
vt 0.928526 0.047147
vt 0.857105 0.988644
vt 0.857105 0.517895
vt 0.857105 0.047147
vt 0.785684 0.988644
vt 0.785684 0.517895
vt 0.785684 0.047147
vt 0.714263 0.988644
vt 0.714263 0.517895
vt 0.714263 0.047147
vt 0.642842 0.988644
vt 0.642842 0.517895
vt 0.642842 0.047147
vt 0.571421 0.517895
vt 0.571421 0.047147
vt 0.571421 0.988644
s 0
f 2/1/1 1/2/1 4/3/1 5/4/1
f 3/5/2 2/1/2 5/4/2 6/6/2
f 5/4/3 4/3/3 7/7/3 8/8/3
f 6/6/4 5/4/4 8/8/4 9/9/4
f 8/8/5 7/7/5 10/10/5 11/11/5
f 9/9/6 8/8/6 11/11/6 12/12/6
f 11/11/7 10/10/7 13/13/7 14/14/7
f 12/12/8 11/11/8 14/14/8 15/15/8
f 14/14/9 13/13/9 16/16/9 17/17/9
f 15/15/10 14/14/10 17/17/10 18/18/10
f 17/17/11 16/16/11 19/19/11 20/20/11
f 18/18/12 17/17/12 20/20/12 21/21/12
f 21/21/13 20/20/13 23/22/13 24/23/13
f 20/20/14 19/19/14 22/24/14 23/22/14
f 26/25/15 25/26/15 28/27/15 29/28/15
f 27/29/16 26/25/16 29/28/16 30/30/16
f 29/28/17 28/27/17 31/31/17 32/32/17
f 30/30/18 29/28/18 32/32/18 33/33/18
f 32/32/19 31/31/19 34/34/19 35/35/19
f 33/33/20 32/32/20 35/35/20 36/36/20
f 35/35/21 34/34/21 37/37/21 38/38/21
f 36/36/22 35/35/22 38/38/22 39/39/22
f 38/38/23 37/37/23 40/40/23 41/41/23
f 39/39/24 38/38/24 41/41/24 42/42/24
f 42/42/25 41/41/25 44/43/25 45/44/25
f 41/41/26 40/40/26 43/45/26 44/43/26
f 44/43/27 43/45/27 1/2/27 2/1/27
f 45/44/28 44/43/28 2/1/28 3/5/28
